<?xml version="1.0" encoding="UTF-8"?>
<svg id="Layer_1" data-name="Layer 1" xmlns="http://www.w3.org/2000/svg" viewBox="0 0 224.51 215.4">
  <defs>
    <style>
      .cls-1 {
        opacity: .7;
      }

      .cls-2 {
        fill: #ca9602;
        stroke-width: 0px;
      }
    </style>
  </defs>
  <path class="cls-2" d="M157.84,7.35s-.02-.01-.02-.01c-13.81-4.89-29.03-7.34-45.65-7.34s-31.69,2.45-45.56,7.34c-13.87,4.89-25.68,12.08-35.45,21.56-11.45,11.4-19.65,24.45-24.59,39.18,0,9.78,2.27,17.9,6.82,24.35,4.55,6.46,10.81,11.27,18.78,14.45,7.97,3.18,17.07,4.76,27.28,4.76,0,0-49.35-10.26-17.02-67.93,14.38-25.66,46.39-33.07,61.51-35.18,2.63-.54,5.37-.81,8.22-.81,14.26,0,25.99,7.21,35.2,21.63,11.68,18.05,17.52,45.48,17.52,82.29,0,10.08-.39,18.1-1.18,24.05s-2.02,12.05-3.7,18.3c-1.35,5.55-3.2,11.4-5.56,17.55-2.36,6.15-5.42,11.98-9.18,17.47-3.77,5.5-8.34,9.98-13.73,13.46-5.39,3.48-11.85,5.22-19.37,5.22-22.46,0-38.34-17.45-47.66-52.34-.9-3.73-1.96-7.51-3.2-11.34-2.36-6.86-6.4-12.6-12.13-17.24-6.63-5.35-14.31-9.23-23.07-11.65-8.31-2.32-16.67-3.48-25.1-3.48H0s8.76,36.92,42.88,44.99c34.13,8.07,27.14,52.39,27.14,52.39,12.88,4.26,26.93,6.39,42.15,6.39,0,0,60.03-1.51,90.56-87.01C232.97,43.73,159.28,8.03,157.84,7.35Z"/>
  <g class="cls-1">
    <path class="cls-2" d="M224.51,111.63c0,20.37-4.32,38.34-12.97,53.92-8.65,15.58-21.34,27.78-38.07,36.61-16.73,8.82-37.17,13.24-61.31,13.24,0,0,60.03-1.51,90.56-87.01C232.97,43.73,159.28,8.03,157.84,7.35c13.8,4.89,25.64,12.07,35.52,21.55,9.88,9.48,17.54,21.15,22.99,35.02,5.44,13.87,8.17,29.78,8.17,47.72Z"/>
    <path class="cls-2" d="M70.02,209.01c-9.55-3.15-18.46-7.48-26.73-12.98-21.67-14.42-34.92-31.46-39.75-51.13-2.36-9.88-3.54-20.97-3.54-33.28,0,0,8.76,36.92,42.88,44.99,34.13,8.07,27.14,52.39,27.14,52.39Z"/>
    <path class="cls-2" d="M103.95,8.53c-18.71,3.86-31.86,21.43-39.44,52.73-3.37,13.41-5.05,29.04-5.05,46.89v3.48s-49.35-10.26-17.02-67.93c14.38-25.66,46.39-33.07,61.51-35.18Z"/>
  </g>
</svg>